{
    "asset" : {
        "generator" : "Khronos glTF Blender I/O v1.5.17",
        "version" : "2.0"
    },
    "scene" : 0,
    "scenes" : [
        {
            "name" : "Scene",
            "nodes" : [
                0
            ]
        }
    ],
    "nodes" : [
        {
            "mesh" : 0,
            "name" : "Cube"
        }
    ],
    "materials" : [
        {
            "doubleSided" : true,
            "name" : "Material",
            "pbrMetallicRoughness" : {
                "baseColorFactor" : [
                    0.050791047513484955,
                    0.8000000715255737,
                    0.005037693772464991,
                    1
                ],
                "metallicFactor" : 0,
                "roughnessFactor" : 0.4000000059604645
            }
        },
        {
            "doubleSided" : true,
            "name" : "Material.001",
            "pbrMetallicRoughness" : {
                "baseColorFactor" : [
                    0.800000011920929,
                    0.800000011920929,
                    0.800000011920929,
                    1
                ],
                "metallicFactor" : 0,
                "roughnessFactor" : 0.5
            }
        },
        {
            "doubleSided" : true,
            "name" : "Material.002",
            "pbrMetallicRoughness" : {
                "baseColorFactor" : [
                    0.0025794734247028828,
                    0.0025794734247028828,
                    0.0025794734247028828,
                    1
                ],
                "metallicFactor" : 0,
                "roughnessFactor" : 0.5
            }
        },
        {
            "doubleSided" : true,
            "name" : "Material.003",
            "pbrMetallicRoughness" : {
                "baseColorFactor" : [
                    0.8000000715255737,
                    0.004626946523785591,
                    0.014666348695755005,
                    1
                ],
                "metallicFactor" : 0,
                "roughnessFactor" : 0.5
            }
        }
    ],
    "meshes" : [
        {
            "name" : "Cube",
            "primitives" : [
                {
                    "attributes" : {
                        "POSITION" : 0,
                        "NORMAL" : 1,
                        "TEXCOORD_0" : 2
                    },
                    "indices" : 3,
                    "material" : 0
                },
                {
                    "attributes" : {
                        "POSITION" : 4,
                        "NORMAL" : 5,
                        "TEXCOORD_0" : 6
                    },
                    "indices" : 7,
                    "material" : 1
                },
                {
                    "attributes" : {
                        "POSITION" : 8,
                        "NORMAL" : 9,
                        "TEXCOORD_0" : 10
                    },
                    "indices" : 11,
                    "material" : 2
                },
                {
                    "attributes" : {
                        "POSITION" : 12,
                        "NORMAL" : 13,
                        "TEXCOORD_0" : 14
                    },
                    "indices" : 15,
                    "material" : 3
                }
            ]
        }
    ],
    "accessors" : [
        {
            "bufferView" : 0,
            "componentType" : 5126,
            "count" : 73,
            "max" : [
                1,
                1,
                1
            ],
            "min" : [
                -1,
                -1,
                -1
            ],
            "type" : "VEC3"
        },
        {
            "bufferView" : 1,
            "componentType" : 5126,
            "count" : 73,
            "type" : "VEC3"
        },
        {
            "bufferView" : 2,
            "componentType" : 5126,
            "count" : 73,
            "type" : "VEC2"
        },
        {
            "bufferView" : 3,
            "componentType" : 5123,
            "count" : 204,
            "type" : "SCALAR"
        },
        {
            "bufferView" : 4,
            "componentType" : 5126,
            "count" : 16,
            "max" : [
                0.7173925638198853,
                0.7858861684799194,
                1
            ],
            "min" : [
                -0.7173925638198853,
                0.21411383152008057,
                1
            ],
            "type" : "VEC3"
        },
        {
            "bufferView" : 5,
            "componentType" : 5126,
            "count" : 16,
            "type" : "VEC3"
        },
        {
            "bufferView" : 6,
            "componentType" : 5126,
            "count" : 16,
            "type" : "VEC2"
        },
        {
            "bufferView" : 7,
            "componentType" : 5123,
            "count" : 48,
            "type" : "SCALAR"
        },
        {
            "bufferView" : 8,
            "componentType" : 5126,
            "count" : 46,
            "max" : [
                0.7690765261650085,
                0.8261831402778625,
                1
            ],
            "min" : [
                -0.7627115845680237,
                -0.46703726053237915,
                1
            ],
            "type" : "VEC3"
        },
        {
            "bufferView" : 9,
            "componentType" : 5126,
            "count" : 46,
            "type" : "VEC3"
        },
        {
            "bufferView" : 10,
            "componentType" : 5126,
            "count" : 46,
            "type" : "VEC2"
        },
        {
            "bufferView" : 11,
            "componentType" : 5123,
            "count" : 96,
            "type" : "SCALAR"
        },
        {
            "bufferView" : 12,
            "componentType" : 5126,
            "count" : 7,
            "max" : [
                0.5154273509979248,
                -0.4193146824836731,
                1
            ],
            "min" : [
                -0.5154273509979248,
                -0.430880606174469,
                1
            ],
            "type" : "VEC3"
        },
        {
            "bufferView" : 13,
            "componentType" : 5126,
            "count" : 7,
            "type" : "VEC3"
        },
        {
            "bufferView" : 14,
            "componentType" : 5126,
            "count" : 7,
            "type" : "VEC2"
        },
        {
            "bufferView" : 15,
            "componentType" : 5123,
            "count" : 12,
            "type" : "SCALAR"
        }
    ],
    "bufferViews" : [
        {
            "buffer" : 0,
            "byteLength" : 876,
            "byteOffset" : 0
        },
        {
            "buffer" : 0,
            "byteLength" : 876,
            "byteOffset" : 876
        },
        {
            "buffer" : 0,
            "byteLength" : 584,
            "byteOffset" : 1752
        },
        {
            "buffer" : 0,
            "byteLength" : 408,
            "byteOffset" : 2336
        },
        {
            "buffer" : 0,
            "byteLength" : 192,
            "byteOffset" : 2744
        },
        {
            "buffer" : 0,
            "byteLength" : 192,
            "byteOffset" : 2936
        },
        {
            "buffer" : 0,
            "byteLength" : 128,
            "byteOffset" : 3128
        },
        {
            "buffer" : 0,
            "byteLength" : 96,
            "byteOffset" : 3256
        },
        {
            "buffer" : 0,
            "byteLength" : 552,
            "byteOffset" : 3352
        },
        {
            "buffer" : 0,
            "byteLength" : 552,
            "byteOffset" : 3904
        },
        {
            "buffer" : 0,
            "byteLength" : 368,
            "byteOffset" : 4456
        },
        {
            "buffer" : 0,
            "byteLength" : 192,
            "byteOffset" : 4824
        },
        {
            "buffer" : 0,
            "byteLength" : 84,
            "byteOffset" : 5016
        },
        {
            "buffer" : 0,
            "byteLength" : 84,
            "byteOffset" : 5100
        },
        {
            "buffer" : 0,
            "byteLength" : 56,
            "byteOffset" : 5184
        },
        {
            "buffer" : 0,
            "byteLength" : 24,
            "byteOffset" : 5240
        }
    ],
    "buffers" : [
        {
            "byteLength" : 5264,
            "uri" : "data:application/octet-stream;base64,"
        }
    ]
}
